<svg width="118" height="118" viewBox="0 0 118 118" fill="none" xmlns="http://www.w3.org/2000/svg">
<g filter="url(#filter0_d_16_35)">
<circle cx="59" cy="55" r="55" fill="#E7EB24" fill-opacity="0.88" shape-rendering="crispEdges"/>
</g>
<path d="M52.4393 84.9214C49.267 85.5932 46.4972 85.5911 44.1297 84.9149C41.7623 84.2388 39.7885 82.8468 38.2084 80.7392C36.6193 78.5898 35.3645 75.65 34.4439 71.9198L43.7185 68.4509C44.2198 70.6126 44.7788 72.3259 45.3956 73.5909C46.0541 74.8471 46.7582 75.7011 47.5081 76.1528C48.2996 76.5958 49.1546 76.72 50.0729 76.5255C51.2416 76.278 51.909 75.7223 52.075 74.8585C52.2828 73.9859 52.2938 73.1113 52.1082 72.2347C51.6663 70.1476 50.7943 68.5006 49.492 67.2935C48.1809 66.0448 46.515 64.8711 44.4943 63.7726L39.3028 60.8815C37.0381 59.6602 35.0213 58.1684 33.2526 56.4059C31.5167 54.5929 30.3262 52.1629 29.681 49.1157C28.7707 44.8164 29.35 41.2701 31.419 38.4768C33.4791 35.6418 36.7005 33.7601 41.0833 32.8319C43.7965 32.2573 46.0642 32.2568 47.8866 32.8303C49.7506 33.395 51.2591 34.3403 52.4121 35.6662C53.598 36.9415 54.5138 38.3831 55.1595 39.9908C55.8381 41.548 56.3574 43.0735 56.7173 44.5674L47.327 47.7991C46.9671 46.3052 46.5888 45.0334 46.192 43.9834C45.8282 42.8829 45.3548 42.0891 44.7719 41.602C44.1802 41.0731 43.4043 40.9103 42.4443 41.1137C41.4008 41.3347 40.7214 41.9365 40.4061 42.9191C40.1325 43.893 40.0886 44.8181 40.2741 45.6947C40.6719 47.5731 41.4371 49.0247 42.57 50.0495C43.7357 51.0238 45.1861 52.0032 46.921 52.9878L51.8981 55.7935C54.5081 57.2033 56.8163 58.9387 58.8227 60.9997C60.8708 63.0519 62.2661 65.8311 63.0085 69.3374C63.5123 71.7166 63.4292 74.0021 62.7593 76.1938C62.0806 78.3437 60.8588 80.1944 59.0938 81.7457C57.3706 83.2882 55.1525 84.3468 52.4393 84.9214ZM70.9804 80.2096L60.2424 29.4939L71.4498 27.1203L80.5838 70.26L92.2295 67.7936L93.8335 75.3696L70.9804 80.2096Z" fill="black"/>
<defs>
<filter id="filter0_d_16_35" x="0" y="0" width="118" height="118" filterUnits="userSpaceOnUse" color-interpolation-filters="sRGB">
<feFlood flood-opacity="0" result="BackgroundImageFix"/>
<feColorMatrix in="SourceAlpha" type="matrix" values="0 0 0 0 0 0 0 0 0 0 0 0 0 0 0 0 0 0 127 0" result="hardAlpha"/>
<feOffset dy="4"/>
<feGaussianBlur stdDeviation="2"/>
<feComposite in2="hardAlpha" operator="out"/>
<feColorMatrix type="matrix" values="0 0 0 0 0 0 0 0 0 0 0 0 0 0 0 0 0 0 0.4 0"/>
<feBlend mode="normal" in2="BackgroundImageFix" result="effect1_dropShadow_16_35"/>
<feBlend mode="normal" in="SourceGraphic" in2="effect1_dropShadow_16_35" result="shape"/>
</filter>
</defs>
</svg>
